<?xml version="1.0" encoding="UTF-8" standalone="no"?>
<svg
   xmlns:dc="http://purl.org/dc/elements/1.1/"
   xmlns:cc="http://creativecommons.org/ns#"
   xmlns:rdf="http://www.w3.org/1999/02/22-rdf-syntax-ns#"
   xmlns:svg="http://www.w3.org/2000/svg"
   xmlns="http://www.w3.org/2000/svg"
   viewBox="0 0 65.720001 52.759998"
   height="52.759998"
   width="65.720001"
   xml:space="preserve"
   id="svg2"
   version="1.1"><metadata
     id="metadata8"><rdf:RDF><cc:Work
         rdf:about=""><dc:format>image/svg+xml</dc:format><dc:type
           rdf:resource="http://purl.org/dc/dcmitype/StillImage" /></cc:Work></rdf:RDF></metadata><defs
     id="defs6" /><g
     transform="matrix(1.3333333,0,0,-1.3333333,0,52.76)"
     id="g10"><g
       transform="scale(0.1)"
       id="g12"><path
         id="path14"
         style="fill:#ffffff;fill-opacity:1;fill-rule:nonzero;stroke:none"
         d="m 368.539,42.793 h -31.211 c 15.117,18.7695 23.34,42.5781 23.34,69.133 0,29.16 -9.492,52.594 -26.934,68.816 h 38.75 c 47.481,-1.152 72.364,-25.461 72.364,-67.851 0,-43.5277 -27.149,-70.098 -76.309,-70.098 m -43.73,308.652 h 30.722 c 46.348,0 71.797,-22.613 71.797,-61.054 0,-41.832 -23.75,-67.27 -67.832,-67.27 h -43.223 c 17.422,16.488 26.875,40.254 26.875,68 0,23.18 -6.386,43.719 -18.339,60.324 M 236.316,43.5234 H 115.332 L 160.23,180.332 h 80.04 c 47.488,0 72.351,-24.316 72.351,-66.711 0,-43.5233 -27.129,-70.0976 -76.305,-70.0976 M 173.461,352.176 h 49.855 c 46.356,0 71.786,-22.61 71.786,-61.055 0,-41.828 -23.731,-67.266 -67.832,-67.266 H 131.344 Z M 416.02,203.336 c 37.871,12.434 59.355,45.223 59.355,87.055 0,61.621 -45.234,104.578 -119.844,104.578 H 239.664 v -0.02 c -5.285,0.481 -10.723,0.754 -16.348,0.754 H 187.75 143.484 94.4453 c 0,0 -2.039,-0.07 -3.0469,-0.07 -12.0703,0 -21.8593,-9.785 -21.8593,-21.856 0,-9.375 6.9023,-18.328 15.1953,-21.433 0,0 8.7773,-0.313 9.8047,-0.168 H 129.199 L 87.0859,223.855 H 86.6836 L 81.0273,205.391 72.875,180.566 h 0.5391 l -0.0743,-0.234 H 115.969 L 71.0703,43.5234 H 27.8242 c 0,0 -3.9609,0.1875 -5.9687,0.1875 C 9.78516,43.7109 0,33.9258 0,21.8555 0,11.9648 6.57813,2.69531 15.5938,0 h 41.1875 44.2657 135.269 c 1.129,0 2.231,0.0507813 3.348,0.0664063 L 239.664,0 h 128.875 c 76.875,0 124.356,47.3125 124.356,111.191 0,50.313 -28.262,83.668 -76.875,92.145" /></g></g></svg>